<?xml version="1.0" standalone="no"?>
<!DOCTYPE svg PUBLIC "-//W3C//DTD SVG 20010904//EN"
 "http://www.w3.org/TR/2001/REC-SVG-20010904/DTD/svg10.dtd">
<svg version="1.0" xmlns="http://www.w3.org/2000/svg"
 width="578.000000pt" height="578.000000pt" viewBox="0 0 578.000000 578.000000"
 preserveAspectRatio="xMidYMid meet">
<metadata>
Created by potrace 1.11, written by Peter Selinger 2001-2013
</metadata>
<g transform="translate(0.000000,578.000000) scale(0.100000,-0.100000)"
fill="#000000" stroke="none">
<path d="M835 5768 c-75 -11 -163 -46 -235 -93 -76 -50 -124 -99 -177 -182
l-38 -58 -3 -2181 -2 -2180 37 -62 c91 -147 211 -237 371 -277 62 -16 198 -18
1735 -18 917 0 1670 3 1673 6 3 3 -26 116 -65 250 -39 135 -71 250 -71 256 0
6 13 -2 28 -17 16 -15 58 -54 93 -86 35 -33 89 -82 119 -110 30 -28 100 -91
154 -141 54 -49 116 -106 137 -126 21 -20 75 -69 121 -110 45 -41 93 -85 107
-98 14 -13 46 -40 71 -60 25 -20 50 -41 55 -47 6 -6 44 -39 85 -74 41 -35 80
-69 86 -74 61 -59 264 -227 271 -225 4 2 8 1165 9 2584 0 2145 -2 2592 -14
2649 -46 232 -218 409 -452 467 -45 11 -408 13 -2050 14 -1098 0 -2018 -3
-2045 -7z m1593 -1341 c25 -16 10 -26 -83 -56 -203 -65 -414 -167 -557 -267
-101 -71 -107 -84 -19 -40 236 119 508 199 796 232 216 25 490 23 660 -5 33
-6 78 -13 100 -17 49 -7 251 -59 291 -74 16 -7 36 -13 44 -15 27 -6 184 -72
267 -112 46 -22 80 -37 77 -32 -2 5 -52 40 -109 78 -127 85 -307 173 -472 232
l-123 43 21 22 c19 20 29 22 78 18 216 -19 475 -112 673 -243 74 -50 78 -54
121 -144 220 -457 356 -1008 371 -1505 2 -66 0 -78 -24 -110 -31 -43 -130
-140 -180 -177 -141 -105 -358 -190 -535 -209 -33 -4 -77 -9 -97 -12 -29 -4
-41 0 -58 18 -41 44 -173 209 -169 212 2 1 33 13 69 26 86 30 171 73 245 123
66 44 171 140 187 172 11 19 10 19 -13 2 -39 -28 -278 -143 -364 -176 -160
-60 -354 -106 -540 -126 -59 -6 -301 -7 -365 0 -219 21 -467 84 -670 170 -67
27 -245 120 -267 137 -8 7 -13 7 -13 1 0 -16 141 -147 205 -190 62 -42 182
-101 248 -123 21 -6 37 -16 35 -21 -2 -4 -43 -58 -93 -119 l-90 -111 -70 6
c-62 5 -85 8 -157 21 -52 9 -182 50 -243 77 -141 62 -298 182 -382 292 -29 38
-30 43 -28 130 3 87 14 251 20 284 1 9 6 43 10 76 4 32 9 68 11 80 2 11 11 58
20 105 53 292 169 649 300 927 l52 112 84 54 c143 93 371 191 491 212 17 3 33
8 37 10 3 2 33 7 66 10 32 4 60 8 62 9 5 6 68 0 80 -7z"/>
<path d="M3847 3504 c-1 -2 -18 -6 -36 -9 -44 -8 -99 -47 -136 -99 -27 -37
-29 -48 -29 -119 0 -43 5 -82 10 -85 5 -4 21 -23 36 -43 14 -19 48 -46 75 -59
26 -13 56 -27 66 -32 9 -4 17 -4 17 1 0 4 10 7 23 6 35 -4 109 24 140 53 112
104 91 283 -41 355 -41 22 -115 41 -125 31z"/>
<path d="M1840 3476 c-133 -37 -195 -200 -124 -326 101 -179 372 -140 414 60
26 121 -36 233 -146 265 -61 18 -83 18 -144 1z"/>
<path d="M2814 3477 c-53 -16 -106 -61 -135 -117 -75 -144 36 -323 201 -324
153 -2 260 145 216 295 -21 70 -72 123 -141 144 -58 17 -84 17 -141 2z"/>
</g>
</svg>
